{"title":"Chinami Sakai (Uncensored) DVDRip","uid":10807199,"size":734396878,"categoryP":"porn","categoryS":"movie_clips","magnet":"?xt=urn:btih:90cebf9fadef4755417c047c67401f5f637a06e0&amp;dn=Chinami+Sakai+%28Uncensored%29+DVDRip&amp;tr=udp%3A%2F%2Ftracker.openbittorrent.com%3A80&amp;tr=udp%3A%2F%2Fopen.demonii.com%3A1337&amp;tr=udp%3A%2F%2Ftracker.coppersurfer.tk%3A6969&amp;tr=udp%3A%2F%2Fexodus.desync.com%3A6969","seeders":1,"leechers":1,"uploader":"ThousandPeers","files":-1,"time":1408391043,"description":"Format                                   : OGG\nFormat/Info                              : Advanced Video Codec\nFile size                                : 699 MiB\nDuration                                 : 1h 30mn\nOverall bit rate mode                    : Variable\nOverall bit rate                         : 1 078 Kbps\n\nVideo\nID                                       : 0 (0x0)\nFormat                                   : AVC\nFormat/Info                              : Advanced Video Codec\nCodec ID                                 : H264\nDuration                                 : 1h 30mn\nBit rate                                 : 981 Kbps\nWidth                                    : 640 pixels\nHeight                                   : 480 pixels\nDisplay aspect ratio                     : 4:3\nFrame rate                               : 29.970 fps\nColor space                              : YUV\nChroma subsampling                       : 4:2:0\nBits/(Pixel*Frame)                       : 0.107\nStream size                              : 637 MiB (91%)\n\nAudio\nID                                       : 1 (0x1)\nFormat                                   : Vorbis\nFormat settings, Floor                   : 1\nDuration                                 : 1h 30mn\nBit rate mode                            : Variable\nBit rate                                 : 45.0 Kbps\nMinimum bit rate                         : 45.0 Kbps\nMaximum bit rate                         : 48.0 Kbps\nChannel(s)                               : 2 channels\nSampling rate                            : 48.0 KHz\nCompression mode                         : Lossy\nStream size                              : 29.2 MiB (4%)","torrent":{"xt":"urn:btih:90cebf9fadef4755417c047c67401f5f637a06e0","amp;dn":"Chinami+Sakai+%28Uncensored%29+DVDRip","amp;tr":["udp%3A%2F%2Ftracker.openbittorrent.com%3A80","udp%3A%2F%2Fopen.demonii.com%3A1337","udp%3A%2F%2Ftracker.coppersurfer.tk%3A6969","udp%3A%2F%2Fexodus.desync.com%3A6969"],"infoHash":"90cebf9fadef4755417c047c67401f5f637a06e0","infoHashBuffer":{"type":"Buffer","data":[144,206,191,159,173,239,71,85,65,124,4,124,103,64,31,95,99,122,6,224]},"announce":[],"urlList":[]}}